<mxfile host="app.diagrams.net" modified="2024-04-28T03:05:31.093Z" agent="Mozilla/5.0 (Windows NT 10.0; Win64; x64) AppleWebKit/537.36 (KHTML, like Gecko) Chrome/124.0.0.0 Safari/537.36 Edg/124.0.0.0" etag="UeSnS3c9zZLfbtnu-PjN" version="24.3.0" type="device">
  <diagram name="第 1 页" id="9J5UHEIrg9vuuUrSM6Fb">
    <mxGraphModel dx="2213" dy="793" grid="1" gridSize="10" guides="1" tooltips="1" connect="1" arrows="1" fold="1" page="1" pageScale="1" pageWidth="827" pageHeight="1169" math="0" shadow="0">
      <root>
        <mxCell id="0" />
        <mxCell id="1" parent="0" />
        <mxCell id="MyAIzNRro33ZLN5hSRFp-24" style="edgeStyle=orthogonalEdgeStyle;rounded=0;orthogonalLoop=1;jettySize=auto;html=1;exitX=0.5;exitY=1;exitDx=0;exitDy=0;" edge="1" parent="1" source="MyAIzNRro33ZLN5hSRFp-2" target="MyAIzNRro33ZLN5hSRFp-23">
          <mxGeometry relative="1" as="geometry" />
        </mxCell>
        <mxCell id="MyAIzNRro33ZLN5hSRFp-25" style="edgeStyle=orthogonalEdgeStyle;rounded=0;orthogonalLoop=1;jettySize=auto;html=1;exitX=0.5;exitY=1;exitDx=0;exitDy=0;" edge="1" parent="1" source="MyAIzNRro33ZLN5hSRFp-2" target="MyAIzNRro33ZLN5hSRFp-10">
          <mxGeometry relative="1" as="geometry" />
        </mxCell>
        <mxCell id="MyAIzNRro33ZLN5hSRFp-26" style="edgeStyle=orthogonalEdgeStyle;rounded=0;orthogonalLoop=1;jettySize=auto;html=1;exitX=0.5;exitY=1;exitDx=0;exitDy=0;" edge="1" parent="1" source="MyAIzNRro33ZLN5hSRFp-2" target="MyAIzNRro33ZLN5hSRFp-22">
          <mxGeometry relative="1" as="geometry" />
        </mxCell>
        <mxCell id="MyAIzNRro33ZLN5hSRFp-27" style="edgeStyle=orthogonalEdgeStyle;rounded=0;orthogonalLoop=1;jettySize=auto;html=1;exitX=0.5;exitY=1;exitDx=0;exitDy=0;entryX=0.5;entryY=0;entryDx=0;entryDy=0;" edge="1" parent="1" source="MyAIzNRro33ZLN5hSRFp-2" target="MyAIzNRro33ZLN5hSRFp-21">
          <mxGeometry relative="1" as="geometry" />
        </mxCell>
        <mxCell id="MyAIzNRro33ZLN5hSRFp-2" value="&lt;font style=&quot;font-size: 16px;&quot;&gt;input&lt;/font&gt;" style="rounded=1;whiteSpace=wrap;html=1;fillColor=#f8cecc;strokeColor=#b85450;" vertex="1" parent="1">
          <mxGeometry x="180" y="190" width="120" height="60" as="geometry" />
        </mxCell>
        <mxCell id="MyAIzNRro33ZLN5hSRFp-35" style="edgeStyle=orthogonalEdgeStyle;rounded=0;orthogonalLoop=1;jettySize=auto;html=1;exitX=0.5;exitY=1;exitDx=0;exitDy=0;entryX=0.5;entryY=0;entryDx=0;entryDy=0;" edge="1" parent="1" source="MyAIzNRro33ZLN5hSRFp-6" target="MyAIzNRro33ZLN5hSRFp-28">
          <mxGeometry relative="1" as="geometry" />
        </mxCell>
        <mxCell id="MyAIzNRro33ZLN5hSRFp-6" value="&lt;span style=&quot;font-size: 16px;&quot;&gt;CBS&lt;/span&gt;" style="rounded=1;whiteSpace=wrap;html=1;fillColor=#dae8fc;strokeColor=#6c8ebf;" vertex="1" parent="1">
          <mxGeometry x="180" y="510" width="120" height="60" as="geometry" />
        </mxCell>
        <mxCell id="MyAIzNRro33ZLN5hSRFp-31" style="edgeStyle=orthogonalEdgeStyle;rounded=0;orthogonalLoop=1;jettySize=auto;html=1;exitX=0.5;exitY=1;exitDx=0;exitDy=0;entryX=0.5;entryY=0;entryDx=0;entryDy=0;" edge="1" parent="1" source="MyAIzNRro33ZLN5hSRFp-10" target="MyAIzNRro33ZLN5hSRFp-29">
          <mxGeometry relative="1" as="geometry" />
        </mxCell>
        <mxCell id="MyAIzNRro33ZLN5hSRFp-10" value="&lt;span style=&quot;font-size: 16px;&quot;&gt;切片&lt;/span&gt;" style="rounded=1;whiteSpace=wrap;html=1;fillColor=#fff2cc;strokeColor=#d6b656;" vertex="1" parent="1">
          <mxGeometry x="100" y="310" width="120" height="60" as="geometry" />
        </mxCell>
        <mxCell id="MyAIzNRro33ZLN5hSRFp-33" style="edgeStyle=orthogonalEdgeStyle;rounded=0;orthogonalLoop=1;jettySize=auto;html=1;exitX=0.5;exitY=1;exitDx=0;exitDy=0;entryX=0.5;entryY=0;entryDx=0;entryDy=0;" edge="1" parent="1" source="MyAIzNRro33ZLN5hSRFp-21" target="MyAIzNRro33ZLN5hSRFp-29">
          <mxGeometry relative="1" as="geometry" />
        </mxCell>
        <mxCell id="MyAIzNRro33ZLN5hSRFp-21" value="&lt;span style=&quot;font-size: 16px;&quot;&gt;切片&lt;/span&gt;" style="rounded=1;whiteSpace=wrap;html=1;fillColor=#fff2cc;strokeColor=#d6b656;" vertex="1" parent="1">
          <mxGeometry x="414" y="310" width="120" height="60" as="geometry" />
        </mxCell>
        <mxCell id="MyAIzNRro33ZLN5hSRFp-32" style="edgeStyle=orthogonalEdgeStyle;rounded=0;orthogonalLoop=1;jettySize=auto;html=1;exitX=0.5;exitY=1;exitDx=0;exitDy=0;entryX=0.5;entryY=0;entryDx=0;entryDy=0;" edge="1" parent="1" source="MyAIzNRro33ZLN5hSRFp-22" target="MyAIzNRro33ZLN5hSRFp-29">
          <mxGeometry relative="1" as="geometry" />
        </mxCell>
        <mxCell id="MyAIzNRro33ZLN5hSRFp-22" value="&lt;span style=&quot;font-size: 16px;&quot;&gt;切片&lt;/span&gt;" style="rounded=1;whiteSpace=wrap;html=1;fillColor=#fff2cc;strokeColor=#d6b656;" vertex="1" parent="1">
          <mxGeometry x="260" y="310" width="120" height="60" as="geometry" />
        </mxCell>
        <mxCell id="MyAIzNRro33ZLN5hSRFp-30" style="edgeStyle=orthogonalEdgeStyle;rounded=0;orthogonalLoop=1;jettySize=auto;html=1;exitX=0.5;exitY=1;exitDx=0;exitDy=0;entryX=0.5;entryY=0;entryDx=0;entryDy=0;" edge="1" parent="1" source="MyAIzNRro33ZLN5hSRFp-23" target="MyAIzNRro33ZLN5hSRFp-29">
          <mxGeometry relative="1" as="geometry" />
        </mxCell>
        <mxCell id="MyAIzNRro33ZLN5hSRFp-23" value="&lt;span style=&quot;font-size: 16px;&quot;&gt;切片&lt;/span&gt;" style="rounded=1;whiteSpace=wrap;html=1;fillColor=#fff2cc;strokeColor=#d6b656;" vertex="1" parent="1">
          <mxGeometry x="-60" y="310" width="120" height="60" as="geometry" />
        </mxCell>
        <mxCell id="MyAIzNRro33ZLN5hSRFp-28" value="&lt;font style=&quot;font-size: 16px;&quot;&gt;output&lt;/font&gt;" style="rounded=1;whiteSpace=wrap;html=1;fillColor=#f8cecc;strokeColor=#b85450;" vertex="1" parent="1">
          <mxGeometry x="180" y="600" width="120" height="60" as="geometry" />
        </mxCell>
        <mxCell id="MyAIzNRro33ZLN5hSRFp-34" style="edgeStyle=orthogonalEdgeStyle;rounded=0;orthogonalLoop=1;jettySize=auto;html=1;exitX=0.5;exitY=1;exitDx=0;exitDy=0;" edge="1" parent="1" source="MyAIzNRro33ZLN5hSRFp-29" target="MyAIzNRro33ZLN5hSRFp-6">
          <mxGeometry relative="1" as="geometry" />
        </mxCell>
        <mxCell id="MyAIzNRro33ZLN5hSRFp-29" value="&lt;span style=&quot;font-size: 16px;&quot;&gt;cat&lt;/span&gt;" style="rounded=1;whiteSpace=wrap;html=1;fillColor=#fff2cc;strokeColor=#d6b656;" vertex="1" parent="1">
          <mxGeometry x="180" y="410" width="120" height="60" as="geometry" />
        </mxCell>
        <mxCell id="MyAIzNRro33ZLN5hSRFp-39" style="edgeStyle=orthogonalEdgeStyle;rounded=0;orthogonalLoop=1;jettySize=auto;html=1;exitX=0.5;exitY=1;exitDx=0;exitDy=0;" edge="1" parent="1" source="MyAIzNRro33ZLN5hSRFp-36" target="MyAIzNRro33ZLN5hSRFp-37">
          <mxGeometry relative="1" as="geometry" />
        </mxCell>
        <mxCell id="MyAIzNRro33ZLN5hSRFp-36" value="&lt;font style=&quot;font-size: 16px;&quot;&gt;input&lt;/font&gt;" style="rounded=1;whiteSpace=wrap;html=1;fillColor=#f8cecc;strokeColor=#b85450;" vertex="1" parent="1">
          <mxGeometry x="640" y="190" width="120" height="60" as="geometry" />
        </mxCell>
        <mxCell id="MyAIzNRro33ZLN5hSRFp-40" style="edgeStyle=orthogonalEdgeStyle;rounded=0;orthogonalLoop=1;jettySize=auto;html=1;exitX=0.5;exitY=1;exitDx=0;exitDy=0;entryX=0.5;entryY=0;entryDx=0;entryDy=0;" edge="1" parent="1" source="MyAIzNRro33ZLN5hSRFp-37" target="MyAIzNRro33ZLN5hSRFp-38">
          <mxGeometry relative="1" as="geometry" />
        </mxCell>
        <mxCell id="MyAIzNRro33ZLN5hSRFp-37" value="&lt;span style=&quot;font-size: 16px;&quot;&gt;CBS&lt;/span&gt;" style="rounded=1;whiteSpace=wrap;html=1;fillColor=#dae8fc;strokeColor=#6c8ebf;" vertex="1" parent="1">
          <mxGeometry x="640" y="310" width="120" height="60" as="geometry" />
        </mxCell>
        <mxCell id="MyAIzNRro33ZLN5hSRFp-38" value="&lt;font style=&quot;font-size: 16px;&quot;&gt;output&lt;/font&gt;" style="rounded=1;whiteSpace=wrap;html=1;fillColor=#f8cecc;strokeColor=#b85450;" vertex="1" parent="1">
          <mxGeometry x="640" y="600" width="120" height="60" as="geometry" />
        </mxCell>
      </root>
    </mxGraphModel>
  </diagram>
</mxfile>
